<svg width="18" height="14" viewBox="0 0 18 14" fill="none" xmlns="http://www.w3.org/2000/svg">
<path d="M1.11978 14C1.05454 14.0003 0.989696 13.9901 0.927875 13.9697C0.798591 13.9285 0.686717 13.8469 0.60952 13.7372C0.532323 13.6276 0.494097 13.4961 0.50074 13.3631C0.50074 13.2721 1.13835 4.46483 10.1515 3.77335V0.607094C10.1514 0.486502 10.188 0.368615 10.2566 0.268491C10.3252 0.168367 10.4227 0.0905496 10.5366 0.0449782C10.6506 -0.000593101 10.7758 -0.0118499 10.8963 0.0126456C11.0168 0.0371411 11.1271 0.096277 11.2132 0.1825L17.323 6.29665C17.4365 6.41003 17.5 6.56247 17.5 6.72124C17.5 6.88001 17.4365 7.03245 17.323 7.14584L11.2132 13.26C11.1271 13.3462 11.0168 13.4053 10.8963 13.4298C10.7758 13.4543 10.6506 13.4431 10.5366 13.3975C10.4227 13.3519 10.3252 13.2741 10.2566 13.174C10.188 13.0739 10.1514 12.956 10.1515 12.8354V9.72979C4.13448 9.95422 1.66762 13.6724 1.64286 13.7179C1.58701 13.8044 1.50977 13.8755 1.41832 13.9248C1.32686 13.9742 1.22416 14 1.11978 14ZM11.3896 2.09317V4.34049C11.3897 4.49774 11.3274 4.64889 11.216 4.76205C11.1046 4.87522 10.9526 4.94154 10.7922 4.94705C4.96089 5.15631 2.87474 8.96249 2.12571 11.41C3.6733 10.0998 6.4311 8.49847 10.7334 8.49847H10.7613C10.9254 8.49847 11.0829 8.56238 11.199 8.67613C11.3151 8.78988 11.3803 8.94416 11.3803 9.10503V11.3523L16.0231 6.72428L11.3896 2.09317Z" fill="white"/>
</svg>
