<svg width="16" height="16" viewBox="0 0 16 16" fill="none" xmlns="http://www.w3.org/2000/svg">
<path d="M0.228569 0.228577V5.88052H1.64156V7.29351H3.05454V5.88052H5.88052V0.228577H0.228569ZM5.88052 5.88052V7.29351H7.2935V8.7065H4.46753V10.1195H0.228569V15.7714H5.88052V10.1195H10.1195V8.7065H8.70649V7.29351H11.5325V5.88052H12.9455V7.29351H14.3584V5.88052H15.7714V0.228577H10.1195V5.88052H5.88052ZM14.3584 7.29351V8.7065H15.7714V7.29351H14.3584ZM14.3584 8.7065H12.9455V10.1195H14.3584V8.7065ZM14.3584 10.1195V11.5325H15.7714V10.1195H14.3584ZM14.3584 11.5325H12.9455V10.1195H11.5325V11.5325H8V15.7714H9.41298V12.9455H12.239V14.3584H13.6519V12.9455H14.3584V11.5325ZM12.239 14.3584H10.826V15.7714H12.239V14.3584ZM12.9455 8.7065V7.29351H11.5325V8.7065H12.9455ZM4.46753 8.7065V7.29351H3.05454V8.7065H4.46753ZM1.64156 7.29351H0.228569V8.7065H1.64156V7.29351ZM7.2935 0.228577V3.05455H6.58701V4.46754H7.2935V5.17403H8.70649V3.05455H9.41298V1.64156H8.70649V0.228577H7.2935ZM1.64156 1.64156H4.46753V4.46754H1.64156V1.64156ZM11.5325 1.64156H14.3584V4.46754H11.5325V1.64156ZM2.34805 2.34806V3.76104H3.76104V2.34806H2.34805ZM12.239 2.34806V3.76104H13.6519V2.34806H12.239ZM1.64156 11.5325H4.46753V14.3584H1.64156V11.5325ZM2.34805 12.239V13.652H3.76104V12.239H2.34805ZM14.3584 14.3584V15.7714H15.7714V14.3584H14.3584Z" fill="white"/>
</svg>
