<svg width="40" height="39" viewBox="0 0 40 39" fill="none" xmlns="http://www.w3.org/2000/svg">
<rect width="40" height="38.9744" rx="8.20513" fill="#4B00A8"/>
<path d="M20.1093 9.97587C23.2069 9.97587 23.5743 9.98747 24.7972 10.0435C26.0618 10.1016 27.3641 10.3897 28.2854 11.311C29.2155 12.2411 29.4949 13.5308 29.5529 14.7992C29.609 16.0222 29.6206 16.3896 29.6206 19.4872C29.6206 22.5848 29.609 22.9522 29.5529 24.1752C29.4959 25.433 29.201 26.7478 28.2854 27.6633C27.3554 28.5934 26.0666 28.8728 24.7972 28.9308C23.5743 28.9869 23.2069 28.9985 20.1093 28.9985C17.0117 28.9985 16.6443 28.9869 15.4213 28.9308C14.1732 28.8738 12.8409 28.5721 11.9331 27.6633C11.0079 26.7381 10.7236 25.4359 10.6656 24.1752C10.6096 22.9522 10.598 22.5848 10.598 19.4872C10.598 16.3896 10.6096 16.0222 10.6656 14.7992C10.7227 13.5462 11.0204 12.2237 11.9331 11.311C12.8612 10.3829 14.1558 10.1016 15.4213 10.0435C16.6443 9.98747 17.0117 9.97587 20.1093 9.97587ZM20.1093 7.88567C16.9585 7.88567 16.5631 7.8992 15.3256 7.95527C13.5322 8.03745 11.7513 8.53632 10.4549 9.83279C9.15357 11.1341 8.65954 12.9111 8.57736 14.7035C8.52129 15.941 8.50775 16.3364 8.50775 19.4872C8.50775 22.638 8.52129 23.0334 8.57736 24.2709C8.65954 26.0623 9.16034 27.848 10.4549 29.1416C11.7552 30.4419 13.5351 30.9369 15.3256 31.0191C16.5631 31.0752 16.9585 31.0887 20.1093 31.0887C23.26 31.0887 23.6555 31.0752 24.893 31.0191C26.6854 30.9369 28.4682 30.4371 29.7637 29.1416C31.0659 27.8393 31.559 26.0633 31.6412 24.2709C31.6972 23.0334 31.7108 22.638 31.7108 19.4872C31.7108 16.3364 31.6972 15.941 31.6412 14.7035C31.559 12.9101 31.0592 11.1283 29.7637 9.83279C28.4653 8.53438 26.6806 8.03649 24.893 7.95527C23.6555 7.8992 23.26 7.88567 20.1093 7.88567Z" fill="white"/>
<path d="M20.1093 13.5298C16.8193 13.5298 14.1519 16.1972 14.1519 19.4872C14.1519 22.7772 16.8193 25.4446 20.1093 25.4446C23.3993 25.4446 26.0667 22.7772 26.0667 19.4872C26.0667 16.1972 23.3993 13.5298 20.1093 13.5298ZM20.1093 23.3544C17.9736 23.3544 16.2421 21.6228 16.2421 19.4872C16.2421 17.3515 17.9736 15.62 20.1093 15.62C22.2449 15.62 23.9765 17.3515 23.9765 19.4872C23.9765 21.6228 22.2449 23.3544 20.1093 23.3544Z" fill="white"/>
<path d="M26.3026 14.6861C27.0715 14.6861 27.6948 14.0628 27.6948 13.2939C27.6948 12.525 27.0715 11.9017 26.3026 11.9017C25.5337 11.9017 24.9104 12.525 24.9104 13.2939C24.9104 14.0628 25.5337 14.6861 26.3026 14.6861Z" fill="white"/>
</svg>
