<svg width="40" height="40" viewBox="0 0 40 40" fill="none" xmlns="http://www.w3.org/2000/svg">
<rect y="0.974365" width="40" height="38.9744" rx="8.20513" fill="#4B00A8"/>
<path d="M25.6174 12.8564C25.9206 13.5455 25.9758 14.6158 25.9758 15.3782C25.9758 16.2798 25.9103 17.1669 25.8552 18.0686C25.962 18.1236 26.1067 18.1675 26.2273 18.1675C26.7028 18.1675 27.1024 17.7863 27.5779 17.7863C28.0293 17.7863 28.677 18.1236 28.677 18.688C28.677 20.0406 26.0137 19.7876 26.0137 20.9716C26.0137 21.1842 26.0929 21.3784 26.1722 21.5764C26.8096 23.0572 28.012 24.4794 29.4419 25.1135C29.7865 25.2674 30.131 25.3517 30.4997 25.436C30.7374 25.491 30.8718 25.6743 30.8718 25.9309C30.8718 26.8875 28.5805 27.2834 27.9707 27.3824C27.7054 27.8186 27.9052 28.8485 27.2024 28.8485C26.658 28.8485 26.117 28.6653 25.5347 28.6653C25.2557 28.6653 24.98 28.6799 24.7147 28.7349C23.1401 29.0171 22.6095 30.8205 20.0254 30.8205C17.4413 30.8205 16.9383 29.0171 15.4051 28.7349C15.126 28.6799 14.8503 28.6653 14.5712 28.6653C13.9752 28.6653 13.4067 28.8779 12.9278 28.8779C12.187 28.8779 12.4109 27.8369 12.1318 27.386C11.522 27.2871 9.23076 26.8912 9.23076 25.9345C9.23076 25.6816 9.36169 25.4984 9.60287 25.4397C9.97498 25.3554 10.3195 25.2711 10.6606 25.1172C12.0767 24.4977 13.3102 23.0609 13.9304 21.58C14.0096 21.3821 14.0889 21.1842 14.0889 20.9752C14.0889 19.7913 11.4152 20.0186 11.4152 18.7064C11.4152 18.1565 12.025 17.8047 12.4867 17.8047C12.8967 17.8047 13.3068 18.1712 13.8236 18.1712C13.9683 18.1712 14.1164 18.1419 14.2474 18.0722C14.1957 17.1852 14.1268 16.2982 14.1268 15.3965C14.1268 14.6341 14.1785 13.5491 14.4851 12.86C15.6566 10.1806 17.6308 9.20927 20.2666 9.17995C22.6509 9.15062 24.6251 10.5765 25.6174 12.8564Z" fill="white"/>
</svg>
