<svg width="40" height="40" viewBox="0 0 40 40" fill="none" xmlns="http://www.w3.org/2000/svg">
<rect y="0.974365" width="40" height="38.9744" rx="8.20513" fill="#4B00A8"/>
<path fill-rule="evenodd" clip-rule="evenodd" d="M19.2735 11.8393C20.1986 11.8393 21.1476 11.8631 22.0673 11.9021L23.1537 11.954L24.1936 12.0157L25.1674 12.0817L26.0569 12.1509C27.0221 12.2248 27.9304 12.6367 28.6219 13.3142C29.3134 13.9916 29.7439 14.8913 29.8375 15.8548L29.8808 16.3147L29.962 17.2993C30.0377 18.3197 30.094 19.432 30.094 20.4957C30.094 21.5594 30.0377 22.6717 29.962 23.6921L29.8808 24.6768C29.8668 24.8347 29.8527 24.9873 29.8375 25.1366C29.7438 26.1003 29.3132 27.0001 28.6215 27.6776C27.9297 28.355 27.0212 28.7668 26.0558 28.8405L25.1685 28.9087L24.1946 28.9757L23.1537 29.0374L22.0673 29.0894C21.1366 29.1298 20.2051 29.1507 19.2735 29.1521C18.3418 29.1507 17.4104 29.1298 16.4796 29.0894L15.3932 29.0374L14.3534 28.9757L13.3795 28.9087L12.4901 28.8405C11.5248 28.7666 10.6166 28.3547 9.92506 27.6772C9.23354 26.9998 8.80308 26.1001 8.7094 25.1366L8.66612 24.6768L8.58497 23.6921C8.50223 22.6286 8.4582 21.5624 8.45296 20.4957C8.45296 19.432 8.50922 18.3197 8.58497 17.2993L8.66612 16.3147C8.68019 16.1567 8.69425 16.0041 8.7094 15.8548C8.80304 14.8914 9.23335 13.9919 9.92465 13.3145C10.6159 12.6371 11.524 12.225 12.489 12.1509L13.3774 12.0817L14.3512 12.0157L15.3922 11.954L16.4785 11.9021C17.4096 11.8616 18.3415 11.8407 19.2735 11.8393ZM17.1094 17.8717V23.1197C17.1094 23.6196 17.6504 23.9312 18.0832 23.6823L22.6278 21.0584C22.7267 21.0014 22.8089 20.9195 22.866 20.8207C22.9231 20.7219 22.9532 20.6098 22.9532 20.4957C22.9532 20.3816 22.9231 20.2695 22.866 20.1707C22.8089 20.0719 22.7267 19.99 22.6278 19.933L18.0832 17.3101C17.9845 17.2531 17.8725 17.2231 17.7585 17.2232C17.6445 17.2232 17.5325 17.2532 17.4338 17.3102C17.3351 17.3673 17.2531 17.4493 17.1962 17.5481C17.1392 17.6468 17.1093 17.7588 17.1094 17.8728V17.8717Z" fill="white"/>
</svg>
